<?xml version="1.0" encoding="UTF-8" standalone="no"?>
<!-- Created with Inkscape (http://www.inkscape.org/) -->

<svg
   xmlns:dc="http://purl.org/dc/elements/1.1/"
   xmlns:cc="http://creativecommons.org/ns#"
   xmlns:rdf="http://www.w3.org/1999/02/22-rdf-syntax-ns#"
   xmlns:svg="http://www.w3.org/2000/svg"
   xmlns="http://www.w3.org/2000/svg"
   xmlns:sodipodi="http://sodipodi.sourceforge.net/DTD/sodipodi-0.dtd"
   xmlns:inkscape="http://www.inkscape.org/namespaces/inkscape"
   width="32"
   height="32"
   viewBox="0 0 8.4666665 8.4666669"
   version="1.1"
   id="svg8"
   inkscape:version="0.92.4 (5da689c313, 2019-01-14)"
   sodipodi:docname="anchordrop_pi_toggled.svg">
  <defs
     id="defs2" />
  <sodipodi:namedview
     id="base"
     pagecolor="#ffffff"
     bordercolor="#666666"
     borderopacity="1.0"
     inkscape:pageopacity="0.0"
     inkscape:pageshadow="2"
     inkscape:zoom="13.59375"
     inkscape:cx="7.281164"
     inkscape:cy="22.925497"
     inkscape:document-units="mm"
     inkscape:current-layer="layer1"
     showgrid="false"
     units="px"
     inkscape:window-width="1920"
     inkscape:window-height="1017"
     inkscape:window-x="-8"
     inkscape:window-y="-8"
     inkscape:window-maximized="1" />
  <metadata
     id="metadata5">
    <rdf:RDF>
      <cc:Work
         rdf:about="">
        <dc:format>image/svg+xml</dc:format>
        <dc:type
           rdf:resource="http://purl.org/dc/dcmitype/StillImage" />
        <dc:title />
      </cc:Work>
    </rdf:RDF>
  </metadata>
  <g
     inkscape:label="Layer 1"
     inkscape:groupmode="layer"
     id="layer1"
     transform="translate(0,-288.53332)">
    <g
       transform="matrix(0.47565677,0,0,0.47045267,-0.02226261,288.54986)"
       style="font-size:16px;font-family:'Times New Roman';fill:#b4b4b4;fill-opacity:1;stroke:#000000;stroke-width:0.74778754"
       id="Group">
      <path
         d="M 18.004,18.007 V 0.006 H 0.003 v 18.001 z"
         stroke-miterlimit="79.8403193612775"
         id="path85"
         inkscape:connector-curvature="0"
         style="fill:#b4b4b4;fill-opacity:1;stroke:none;stroke-width:0.56084061;stroke-linejoin:miter;stroke-miterlimit:79.84031677;marker-start:none;marker-end:none" />
      <g
         id="Group_1"
         style="fill:#b4b4b4;fill-opacity:1;stroke-width:0.74778754">
        <g
           id="Group_2"
           stroke-miterlimit="79.8403193612775"
           style="fill:#b4b4b4;fill-opacity:1;stroke:none;stroke-width:0.56084061;stroke-linejoin:miter;stroke-miterlimit:79.84031677">
          <g
             id="Group_3"
             style="fill:#b4b4b4;fill-opacity:1;stroke-width:0.56084061">
            <path
               d="m 3.399,13.343 v 0.685 h 2.717 v -0.685 z"
               id="path89"
               inkscape:connector-curvature="0"
               style="fill:#b4b4b4;fill-opacity:1;stroke-width:0.56084061;marker-start:none;marker-end:none" />
            <path
               d="m 3.399,11.714 v 0.685 h 2.717 v -0.685 z"
               id="path91"
               inkscape:connector-curvature="0"
               style="fill:#b4b4b4;fill-opacity:1;stroke-width:0.56084061;marker-start:none;marker-end:none" />
            <path
               d="M 3.399,10.085 V 10.77 H 6.116 V 10.085 Z"
               id="path93"
               inkscape:connector-curvature="0"
               style="fill:#b4b4b4;fill-opacity:1;stroke-width:0.56084061;marker-start:none;marker-end:none" />
            <path
               d="M 3.399,8.456 V 9.141 H 6.116 V 8.456 Z"
               id="path95"
               inkscape:connector-curvature="0"
               style="fill:#b4b4b4;fill-opacity:1;stroke-width:0.56084061;marker-start:none;marker-end:none" />
            <path
               d="M 3.399,6.827 V 7.512 H 6.116 V 6.827 Z"
               id="path97"
               inkscape:connector-curvature="0"
               style="fill:#b4b4b4;fill-opacity:1;stroke-width:0.56084061;marker-start:none;marker-end:none" />
            <path
               d="m 3.399,5.198 c -0.1968366,1.247727 2.717,1.247727 2.717,0 z"
               id="path99"
               inkscape:connector-curvature="0"
               style="fill:#b4b4b4;fill-opacity:1;stroke-width:0.56084061;marker-start:none;marker-end:none"
               sodipodi:nodetypes="ccc" />
            <path
               d="M 3.399,3.569 V 4.254 H 6.116 V 3.569 Z"
               id="path101"
               inkscape:connector-curvature="0"
               style="fill:#b4b4b4;fill-opacity:1;stroke-width:0.56084061;marker-start:none;marker-end:none" />
          </g>
        </g>
        <g
           id="Group_11"
           stroke-miterlimit="79.8403193612775"
           style="display:inline;fill:#b4b4b4;fill-opacity:1;fill-rule:nonzero;stroke:none;stroke-width:0.2804203;stroke-linecap:round;stroke-linejoin:round;stroke-miterlimit:79.84031677" />
      </g>
    </g>
    <path
       style="fill:#000000;fill-opacity:1;stroke:#b4b4b4;stroke-width:0.01167816;stroke-miterlimit:79.84031677;stroke-dasharray:none;stroke-opacity:1"
       d="m 4.2839565,295.13772 -0.1386782,-0.003 v -0.0521 -0.0521 l -0.1338122,-0.0605 c -0.073597,-0.0333 -0.5082434,-0.22915 -0.9658813,-0.43523 -0.457638,-0.20609 -0.8339101,-0.37645 -0.8361602,-0.37858 -0.00225,-0.002 0.024928,-0.0684 0.060396,-0.14738 0.050534,-0.11246 0.068265,-0.14307 0.081946,-0.14147 0.0096,10e-4 0.4159757,0.18155 0.9030524,0.40096 l 0.8855938,0.39892 0.00246,-1.49494 c 0.00135,-0.82222 0.00114,-1.49627 -4.498e-4,-1.49788 -0.00161,-0.002 -0.3694856,-0.006 -0.8175022,-0.01 l -0.814576,-0.007 v -0.19306 -0.19305 h 0.8174627 0.8174712 v -0.58391 -0.58391 h 0.1995019 0.199502 v 0.58244 0.58244 l 0.094885,0.006 c 0.052187,0.003 0.4091006,0.006 0.7931419,0.006 l 0.6982566,5e-5 1.4e-6,0.19707 1.3e-6,0.19707 -0.7931431,-0.003 -0.7931429,-0.003 v 1.53374 c 0,0.84355 0.0037,1.53227 0.00823,1.53049 0.00453,-0.002 0.3608194,-0.18608 0.7917587,-0.40955 0.4309393,-0.22346 0.787787,-0.4063 0.7929951,-0.4063 0.010806,0 0.1467157,0.25886 0.1392738,0.26526 -0.00267,0.002 -0.3934373,0.20523 -0.8683578,0.45094 -0.8258576,0.42728 -0.8635007,0.44792 -0.8636973,0.47351 -1.965e-4,0.0255 -0.00238,0.0268 -0.048068,0.0268 -0.026326,0 -0.053695,0.001 -0.060824,0.003 -0.00713,10e-4 -0.075366,10e-4 -0.1516388,-2.7e-4 z"
       id="path893"
       inkscape:connector-curvature="0" />
  </g>
</svg>
